<?xml version="1.0" encoding="UTF-8" standalone="no"?><!DOCTYPE svg PUBLIC "-//W3C//DTD SVG 1.1//EN" "http://www.w3.org/Graphics/SVG/1.1/DTD/svg11.dtd"><svg width="100%" height="100%" viewBox="0 0 1000 407" version="1.1" xmlns="http://www.w3.org/2000/svg" xmlns:xlink="http://www.w3.org/1999/xlink" xml:space="preserve" xmlns:serif="http://www.serif.com/" style="fill-rule:evenodd;clip-rule:evenodd;stroke-linejoin:round;stroke-miterlimit:2;"><g><path d="M347.142,236.248c0,10.677 -2.242,28.293 -6.726,52.85c-11.531,-1.708 -21.781,-2.562 -30.749,-2.562l-9.93,0c-4.484,0.213 -7.794,0.32 -9.929,0.32c-5.125,0 -12.545,1.228 -22.261,3.683c-9.716,2.456 -17.03,3.684 -21.941,3.684c-6.192,0 -15.588,-0.427 -28.186,-1.281c-12.599,-0.855 -22.101,-1.282 -28.507,-1.282c-9.182,0 -15.482,0.855 -18.898,2.563c19.431,-21.664 35.34,-44.185 47.725,-67.564c10.463,-19.949 20.713,-45.473 30.749,-76.572c-20.072,-0.214 -28.614,-0.321 -25.624,-0.321c-2.136,0 -8.755,6.139 -19.859,18.418c-11.104,12.278 -19.005,18.417 -23.703,18.417c-5.124,0 -7.687,-6.619 -7.687,-19.859c0,-8.541 1.068,-19.965 3.203,-34.272c6.406,-0.641 20.713,-2.776 42.921,-6.406c17.51,-2.776 31.71,-4.164 42.6,-4.164c5.125,0 12.705,0.694 22.742,2.082c10.036,1.388 17.616,2.082 22.741,2.082c12.385,0 23.702,-2.029 33.952,-6.086c0,10.226 -5.125,24.929 -15.374,44.107c-5.125,9.799 -15.482,27.269 -31.07,52.409c-13.239,21.307 -21.78,36.328 -25.624,45.063c2.99,2.132 9.823,3.198 20.499,3.198l16.656,0c2.99,0 9.289,-6.833 18.898,-20.499c9.609,-13.667 16.015,-20.5 19.218,-20.5c2.776,0 4.164,4.164 4.164,12.492Z" style="fill:#252833;fill-rule:nonzero;"/><path d="M555.339,197.171c0,11.317 -5.072,24.557 -15.214,39.718c-10.143,15.161 -20.446,25.624 -30.91,31.389c-7.26,4.271 -14.52,8.542 -21.78,12.812c-10.036,5.339 -17.51,8.008 -22.421,8.008c-2.776,0 -6.086,0.801 -9.93,2.402c-3.843,1.602 -6.726,2.403 -8.648,2.403c-16.229,0 -27.973,-2.99 -35.233,-8.969c-1.709,-1.708 -4.485,-4.164 -8.328,-7.367c-12.599,-8.755 -24.13,-19.645 -34.593,-32.671c-12.812,-16.015 -19.218,-30.001 -19.218,-41.959c0,-6.193 2.349,-14.948 7.047,-26.265c8.541,-20.927 22.314,-37.743 41.319,-50.448c19.004,-12.705 39.824,-19.165 62.459,-19.378l1.601,0c6.62,0 11.958,1.067 16.015,3.203c4.485,3.203 8.862,6.406 13.133,9.609c11.104,7.901 28.934,25.944 53.49,54.131c7.474,8.755 11.211,16.549 11.211,23.382Zm-48.366,5.125c0,-20.072 -8.755,-35.981 -26.265,-47.725c-8.327,-5.552 -14.52,-8.328 -18.577,-8.328l-7.047,0c-12.171,0.213 -22.901,3.95 -32.19,11.211c-9.289,7.26 -16.176,16.762 -20.66,28.507c-2.562,7.046 -3.843,12.705 -3.843,16.976c0,11.317 6.085,23.649 18.257,36.995c12.171,13.345 23.916,20.018 35.233,20.018l4.484,0c2.136,-0.213 3.63,-0.32 4.485,-0.32c1.921,-1.922 7.74,-5.765 17.456,-11.531c9.716,-5.765 16.709,-11.851 20.98,-18.257c5.125,-7.26 7.687,-16.442 7.687,-27.546Zm-20.819,18.577c-1.709,0 -4.271,0.267 -7.688,0.801c-3.416,0.534 -5.979,0.801 -7.687,0.801c-5.125,0 -8.435,-2.349 -9.929,-7.047c-0.855,-2.349 -1.282,-6.726 -1.282,-13.132c0,-9.823 1.815,-21.033 5.446,-33.632c0,3.417 2.242,7.26 6.726,11.531c5.125,4.911 8.114,8.755 8.968,11.531c3.63,11.317 5.446,21.033 5.446,29.147Zm-44.843,-32.35c0,15.588 -1.388,28.293 -4.164,38.116c-0.213,0.213 -0.534,0.32 -0.961,0.32c-0.854,0 -3.149,-1.228 -6.886,-3.683c-3.737,-2.456 -7.207,-3.684 -10.41,-3.684c-0.214,-2.135 -0.32,-4.164 -0.32,-6.085c0,-17.724 7.58,-31.817 22.741,-42.28l0,17.296Z" style="fill:#252833;fill-rule:nonzero;"/><path d="M562.065,127.025c6.406,0 15.748,-0.961 28.027,-2.883c12.278,-1.922 21.513,-2.883 27.706,-2.883c-0.854,0.854 -3.63,4.378 -8.328,10.57c-3.416,4.271 -6.726,7.261 -9.929,8.969c10.676,15.801 23.595,33.205 38.756,52.209c0.854,-2.979 4.805,-12.026 11.852,-27.14c5.979,-12.556 8.968,-21.069 8.968,-25.54c0,-7.664 -8.968,-23.308 -26.905,-46.934c4.697,2.766 10.142,6.913 16.335,12.442c9.182,8.084 14.414,12.552 15.695,13.402c29.041,23.182 57.761,38.177 86.161,44.983c-3.843,0 -9.395,1.755 -16.655,5.265c-7.261,3.51 -13.026,5.265 -17.297,5.265c-2.562,0 -6.246,-0.16 -11.05,-0.481c-4.805,-0.32 -8.488,-0.48 -11.051,-0.48c-6.406,0 -15.161,15.908 -26.265,47.725c-14.306,40.785 -27.866,70.253 -40.678,88.404c-22.421,31.816 -50.715,47.725 -84.88,47.725c-2.136,0 -5.232,0.107 -9.289,0.32c-4.271,0 -7.367,0 -9.289,0c-7.687,0 -13.452,-1.388 -17.296,-4.164c-3.844,-2.776 -7.687,-7.794 -11.531,-15.054c-2.349,-4.484 -3.523,-9.075 -3.523,-13.773c0,-5.125 1.174,-9.289 3.523,-12.492c1.281,-0.213 4.965,-2.989 11.05,-8.328c6.086,-5.338 12.652,-8.007 19.699,-8.007c5.338,0 10.357,1.388 15.054,4.164c5.339,3.416 8.008,7.58 8.008,12.491c0,1.709 -0.641,3.844 -1.922,6.406c-1.281,3.203 -2.029,5.446 -2.242,6.727c-2.776,-2.136 -6.833,-5.339 -12.172,-9.609c-4.911,-0.214 -8.861,0.854 -11.851,3.203c-0.427,0.427 -3.096,3.523 -8.007,9.289c0.213,2.562 2.455,5.018 6.726,7.366c4.271,2.349 7.794,3.524 10.57,3.524c17.296,0 35.767,-12.278 55.412,-36.835c18.578,-23.489 27.867,-44.095 27.867,-61.818c0,-6.406 -14.734,-26.265 -44.202,-59.577c-20.499,-22.848 -39.291,-42.92 -56.373,-60.217c19.858,3.844 36.301,5.766 49.326,5.766Z" style="fill:#252833;fill-rule:nonzero;"/><path d="M938.101,270.841c-11.958,1.067 -24.237,4.27 -36.835,9.609c-14.093,6.192 -24.343,13.346 -30.749,21.46c-3.417,-8.968 -9.716,-21.994 -18.898,-39.077c-2.135,4.057 -6.833,10.677 -14.093,19.859c-6.406,6.833 -14.307,10.25 -23.703,10.25c-1.281,0 -3.737,-0.107 -7.367,-0.321c-3.63,-0.213 -6.513,-0.32 -8.648,-0.32c-12.598,0 -24.663,-3.844 -36.194,-11.531c-10.677,-7.474 -19.005,-17.083 -24.984,-28.827c1.709,-11.958 6.193,-23.489 13.453,-34.593c8.755,-13.025 18.471,-19.538 29.148,-19.538c4.484,0 11.103,-0.641 19.858,-1.922c8.755,-1.281 15.482,-1.922 20.179,-1.922c12.385,0 22.422,-4.736 30.109,-14.208c-1.922,-5.382 -6.353,-10.979 -13.293,-16.791c-6.94,-5.812 -13.186,-8.718 -18.737,-8.718c-7.901,0 -15.375,0.862 -22.422,2.587c-10.249,2.806 -15.161,6.905 -14.734,12.297l0,1.621c9.182,3.02 15.802,6.039 19.859,9.059c-14.093,3.883 -25.304,5.825 -33.632,5.825c-6.406,0 -10.89,-0.961 -13.452,-2.883c-2.563,-1.921 -4.805,-5.979 -6.727,-12.171c3.63,-7.901 12.172,-15.695 25.625,-23.382c16.015,-8.969 27.119,-14.627 33.311,-16.976c10.89,-4.057 23.275,-6.086 37.155,-6.086c4.698,0 9.609,0.214 14.734,0.641c32.03,21.567 48.046,48.259 48.046,80.075c0,4.698 -0.428,11.852 -1.282,21.461c-0.854,9.609 -1.281,16.869 -1.281,21.78c0,3.844 0.214,7.474 0.641,10.891c7.9,2.135 19.538,6.085 34.913,11.851Zm-79.756,-71.428c-12.812,4.057 -25.624,8.115 -38.436,12.172c-16.442,7.046 -24.663,15.908 -24.663,26.585c0,6.406 1.281,11.851 3.843,16.335c2.99,5.552 7.474,8.328 13.453,8.328c2.776,0 8.061,-3.843 15.855,-11.531c7.794,-7.687 16.389,-11.531 25.784,-11.531c0.641,-8.968 2.029,-22.421 4.164,-40.358Z" style="fill:#252833;fill-rule:nonzero;"/><path d="M73.985,291.749c0.431,-2.011 0.08,-1.759 1.806,-3.374c2.428,-2.271 9.086,-10.156 11.202,-25.265c0.604,-5.741 1.816,-21.638 4.536,-29.796c2.417,-8.159 5.932,-18.539 5.932,-23.978c0,-5.44 0.67,-15.388 2.483,-19.921c2.073,-5.182 1.406,-13.431 1.415,-19.858c-6.032,-6.864 -10.722,-13.062 -16.565,-15.273c-4.532,-1.813 -8.411,-7.132 -10.526,-11.363c-3.021,-6.648 -2.821,-6.676 4.733,-19.065c3.117,-4.986 10.349,-12.506 10.64,-15.777c-3.091,-2.938 -5.333,-5.229 -6.211,-6.692c-0.704,-1.126 -0.66,-3.736 -2.124,-6.226c-1.024,-1.74 -2.627,-1.093 -4.051,-3.274c-0.914,-1.399 0.534,-10.23 -0.034,-12.059c-2.417,-8.46 -8.633,-12.379 -11.05,-14.192c-6.346,-5.439 -5.439,-14.504 1.511,-16.619c7.554,-2.418 11.414,1.378 11.414,8.328c0,0.489 -11.217,-6.403 3.38,8.619l16.568,17.579c0,0 3.139,-8.91 5.132,-11.592c9.216,-12.401 26.528,-8.793 33.478,4.2c-1.67,5.636 -2.928,12.242 -3.249,20.724c4.611,6.85 3.733,10.796 2.205,10.796c-1.209,0 -8.234,2.074 -4.377,5.467c2.552,2.245 7.923,5.147 8.742,8.098c0.906,3.265 -3.938,5.972 -3.443,10.685c7.687,-0.359 23.935,-3.803 32.34,-5.861c1.985,-0.485 3.26,-2.596 4.909,-2.372c1.144,0.155 2.171,0.395 3.05,0.732c2.892,1.107 2.119,6.828 2.119,7.942c10.631,-1.388 -9.659,1.692 -9.522,-0.291c-2.286,0.945 -9.99,1.791 -15.921,3.294c-6.462,1.637 -10.442,2.549 -20.138,5.297c3.022,4.533 16.675,24.359 14.089,48.437c-1.574,14.662 -2.926,48.66 -2.276,58.654c0.216,3.325 -0.272,4.848 -1.621,6.743c0.389,10.034 0.33,17.035 1.867,26.516c1.268,7.827 13.132,12.272 11.932,14.426c-0.934,1.676 -3.948,0.817 -10.031,0.685l-2.127,-0.47l-3.123,-8.171l-2.607,0.029l-0.23,8.863l-2.662,0.07c0,0 -0.769,-8.551 -0.599,-12.337c0.16,-3.542 2.38,-4.421 2.38,-4.421c0,0 -2.075,-15.769 -2.653,-25.289c-0.136,-2.246 -2.654,-4.631 -2.963,-7.206c-0.453,-3.769 0.653,-13.662 0.653,-13.662c-1.209,-21.756 -2.214,-22.479 -3.121,-31.242l-4.403,-22.98l-10.344,25.156c-4.835,11.18 -11.856,26.228 -13.065,29.552c-1.511,3.324 -1.036,10.578 -1.942,14.809c-0.605,4.23 -6.082,11.975 -9.104,23.458c-3.593,14.16 -2.348,19.629 -4.701,23.63c-0.809,0.529 -3.268,0.081 -6.083,0.353c-4.495,0.482 -4.994,0.102 -7.684,0.172c0.101,-2.079 -0.018,-2.22 0.034,-4.688Zm36.855,-145.599c0,-2.418 -5.067,-8.093 -8.694,-12.323c-9.96,-15.948 -8.394,-9.298 -12.882,-4.748c-3.324,2.417 -9.762,8.04 -6.74,9.249c1.813,0.604 6.64,2.803 6.64,4.918c0,5.439 15.761,17.414 18.741,18.529c1.511,-1.209 2.935,-13.208 2.935,-15.625Zm-41.652,-83.364c0,0 7.794,5.718 11.13,15.267c1.177,3.369 -0.813,8.978 0.567,11.283c0.949,1.585 2.699,2.184 3.615,3.77c0.948,1.64 1.148,4.716 2.494,6.354c1.346,1.637 6.603,3.505 6.603,3.505c3.99,-4.369 2.413,-8.839 4.97,-17.205c-3.499,-3.476 -25.478,-27.659 -25.478,-27.659c0,0 -2.01,-2.843 -3.704,-4.981c-7.678,3.619 -0.197,9.666 -0.197,9.666Z" style="fill:#252833;fill-rule:nonzero;"/></g></svg>